<?xml version="1.0" standalone="no"?>
<!DOCTYPE svg PUBLIC "-//W3C//DTD SVG 20010904//EN"
 "http://www.w3.org/TR/2001/REC-SVG-20010904/DTD/svg10.dtd">
<svg version="1.0" xmlns="http://www.w3.org/2000/svg"
 width="700.000000pt" height="700.000000pt" viewBox="0 0 700.000000 700.000000"
 preserveAspectRatio="xMidYMid meet">
<metadata>
Created by potrace 1.14, written by Peter Selinger 2001-2017
</metadata>
<g transform="translate(0.000000,700.000000) scale(0.100000,-0.100000)"
fill="#000000" stroke="none">
<path d="M560 6985 c-283 -56 -506 -289 -550 -575 -8 -56 -10 -822 -8 -2955 3
-2730 4 -2883 21 -2939 72 -240 254 -422 492 -493 57 -17 203 -18 2940 -21
2133 -2 2899 0 2955 8 287 44 521 270 576 557 21 112 21 5753 0 5865 -54 282
-272 500 -554 554 -105 20 -5771 19 -5872 -1z m3335 -714 c165 -25 254 -44
384 -82 365 -105 723 -296 1021 -544 103 -86 321 -312 401 -415 305 -394 493
-832 570 -1331 33 -208 33 -590 0 -798 -70 -457 -239 -874 -499 -1236 -97
-135 -185 -236 -334 -380 -415 -405 -941 -664 -1539 -756 -208 -33 -590 -33
-798 0 -453 70 -866 236 -1230 494 -230 164 -476 409 -643 642 -270 375 -433
788 -505 1270 -24 168 -24 562 0 730 75 504 248 927 544 1324 114 153 390 429
543 542 413 307 878 494 1360 548 52 6 111 13 130 15 93 11 471 -4 595 -23z"/>
<path d="M3290 5923 c-634 -63 -1246 -389 -1655 -883 -170 -205 -342 -509
-428 -756 l-36 -101 65 -81 c109 -136 283 -271 448 -348 41 -19 77 -34 79 -34
2 0 -16 21 -39 47 -24 26 -59 77 -78 113 -35 66 -74 185 -64 196 3 3 46 -27
94 -66 335 -268 724 -447 1173 -536 20 -4 16 -9 -35 -40 -144 -87 -277 -219
-358 -354 -56 -95 -111 -241 -127 -340 l-12 -69 37 -50 c48 -65 134 -129 298
-220 318 -176 447 -291 543 -481 86 -171 119 -336 119 -601 l1 -196 26 9 c54
19 338 166 427 222 242 150 461 348 580 524 84 122 157 278 187 396 48 190 55
430 18 601 -73 339 -383 529 -1078 660 -579 110 -995 305 -1147 539 -45 69
-59 117 -59 194 0 113 104 255 205 281 87 22 152 -5 371 -149 138 -92 259
-158 325 -178 61 -20 173 -33 212 -27 l38 7 -32 40 c-129 157 -192 302 -224
508 -46 308 29 714 194 1050 31 63 58 118 60 123 4 7 -58 7 -128 0z"/>
<path d="M5379 4673 c-249 -241 -371 -436 -399 -635 -11 -79 -7 -136 17 -213
42 -133 111 -229 333 -461 222 -231 347 -400 418 -566 14 -32 28 -58 32 -58 7
0 44 111 72 215 57 218 82 548 59 776 -28 266 -101 528 -215 765 -57 118 -167
304 -180 304 -3 0 -65 -57 -137 -127z"/>
</g>
</svg>
