<svg width="100" height="100" viewBox="0 0 100 100" fill="none" xmlns="http://www.w3.org/2000/svg">
<rect width="100" height="100" fill="white"/>
<path fill-rule="evenodd" clip-rule="evenodd" d="M100 100H0V87.5L16.1163 71L21 66L23.7368 53L25 47L45 29L51 20.5L60.5 13L73.5 11C78 13.8333 87.2 19.5 88 19.5C88.5858 19.5 89.6863 26.0197 90.598 31.4209C90.816 32.7127 91.0233 33.9406 91.2101 35C91.5756 37.0725 91.8629 38.5 92 38.5C92.4 38.5 97.5 39.5 100 40V100Z" fill="#062757"/>
<path fill-rule="evenodd" clip-rule="evenodd" d="M100 40V0H97.5C95.6667 2.83333 91.842 8.7 91.2101 9.5C90.4203 10.5 94 25 94.5 26C94.9 26.8 92.4734 32.3333 91.2101 35C91.5756 37.0725 91.8629 38.5 92 38.5C92.4 38.5 97.5 39.5 100 40ZM12.5 58.5L16.1163 71L21 66L23.7368 53C24.1579 48.5 25.2 39.2 26 38C26.7441 36.8839 29.7028 30.508 31.3744 26.9057C31.9494 25.6668 32.372 24.7559 32.5 24.5C32.9 23.7 31.3333 15.1667 30.5 11L26 0H0V38.5L9 44.5L12.5 58.5Z" fill="#C58C75"/>
<path d="M25 47L45 29L51 20.5L60.5 13L73.5 11C78 13.8333 87.2 19.5 88 19.5C88.5858 19.5 89.6863 26.0197 90.598 31.4209C90.816 32.7127 91.0233 33.9406 91.2101 35C92.4734 32.3333 94.9 26.8 94.5 26C94 25 90.4203 10.5 91.2101 9.5C91.842 8.7 95.6667 2.83333 97.5 0H26L30.5 11C31.3333 15.1667 32.9 23.7 32.5 24.5C32.372 24.7559 31.9494 25.6668 31.3744 26.9057C29.7028 30.508 26.7441 36.8839 26 38C25.2 39.2 24.1579 48.5 23.7368 53L25 47Z" fill="#196942"/>
<path fill-rule="evenodd" clip-rule="evenodd" d="M0 87.5V38.5L9 44.5L12.5 58.5L16.1163 71L0 87.5Z" fill="#196942"/>
<path d="M58.5 88L16.5 95L6 91L18.5 81.5L42.5 77.5L60.5 66L58 53.5L51.5 52.5L58 63.5L45 70.5L28.5 67L14.5 56C15.3333 50.5 17 39.4 17 39C17 38.6 23 31.8333 26 28.5C26.5 29.6667 27.4 32.1 27 32.5C26.6 32.9 23.8333 42 22.5 46.5L26.5135 56.5L25 48.5L41.5 37L68 28L82 36L64.5 37L50.5 46.5L58.5 42L71 45C74 47 80.1 51.1 80.5 51.5C80.9 51.9 92.3333 60.3333 98 64.5L100 88V100H83C83.8333 94.1667 85.5 82.4 85.5 82C85.5 81.6 87.1667 75.1667 88 72L73.5556 68L74 72L58.5 88Z" fill="#F4F4F4"/>
</svg>
