<svg width="100" height="100" viewBox="0 0 100 100" fill="none" xmlns="http://www.w3.org/2000/svg">
<g clip-path="url(#clip0)">
<circle cx="50" cy="50" r="50" transform="rotate(-23 50 50)" fill="#1E4F73"/>
<mask id="mask0" mask-type="alpha" maskUnits="userSpaceOnUse" x="-16" y="-16" width="132" height="132">
<circle cx="50" cy="50" r="50" transform="rotate(-23 50 50)" fill="#1A4B6D"/>
</mask>
<g mask="url(#mask0)">
<circle cx="56" cy="44" r="50" transform="rotate(-23 56 44)" fill="#2A6996"/>
</g>
<mask id="mask1" mask-type="alpha" maskUnits="userSpaceOnUse" x="-16" y="-16" width="132" height="132">
<circle cx="50" cy="50" r="50" transform="rotate(-23 50 50)" fill="#C4C4C4"/>
</mask>
<g mask="url(#mask1)">
<path d="M-83.1398 57.6283L-71.6195 52.7382L-51.7282 44.2948L-35.3636 40.2171L-33.1501 57.4143C-34.9256 59.6947 -37.5519 62.9659 -40.2204 66.1055C-44.0216 70.5778 -47.9087 74.7832 -49.5448 75.4777C-52.3296 76.6597 -52.83 82.486 -52.7322 85.2513L-38.0487 88.7347L-28.2689 84.5834L-5.07489 89.4512L-4.52549 102.728L-6.85732 119.356L0.025559 130.963L-11.3714 129.23L-21.5988 109.975L-34.2487 101.835L-38.6087 91.5634L-57.07 90.7015L-73.1095 78.2626L-76.0337 62.8475L-88.6008 66.4238L-83.1398 57.6283Z" fill="#FFCE85"/>
<path d="M46.4479 75.5391C45.9546 73.8238 39.1282 71.7369 35.7767 70.9078L26.9516 69.9346L18.1265 68.9613L19.0934 56.984L19.6426 50.1809L37.4507 46.5083L38.4916 43.6605L46.8697 45.1937L60.366 53.7152L68.5894 51.4275L64.1843 68.0105L66.8801 74.3615L66.0401 90.3565L55.3949 92.4691C54.7517 91.3274 53.9527 89.8981 53.0987 88.3544C50.2661 83.2347 46.827 76.857 46.4479 75.5391Z" fill="#FFCE85"/>
<path d="M17.6998 48.5997L22.6902 47.2216L27.6553 39.562L37.9213 39.0908L46.531 40.248L60.4783 50.9841L65.7037 39.7901L73.963 39.4304L86.8433 46.2702L86.5608 34.083L96.614 35.6453L105.683 45.0282L106.538 39.6684L101.451 31.3713L104.915 17.8713C104.385 14.3949 102.969 7.11186 101.548 5.79057C100.126 4.46928 105.383 0.769606 108.189 -0.915071C109.111 -6.11804 110.738 -16.4325 109.876 -16.0666C109.014 -15.7008 88.5832 -9.92762 78.4753 -7.08679L43.9038 11.9371C38.8825 14.9322 28.4586 21.0842 26.9336 21.7315C25.4086 22.3788 23.2958 25.6816 22.43 27.252L30.7702 25.47L24.5268 32.1917L17.2222 39.1788L19.828 40.4786L17.0649 45.2603L17.6998 48.5997Z" fill="#FFCE85"/>
<path d="M117.382 61.0677C120.716 56.9384 127.571 48.248 128.325 46.5215L139.402 44.9657L145.615 51.7671C145.275 53.7604 144.604 56.8413 143.71 59.5084C142.859 62.0472 141.805 64.211 140.641 64.7051C138.254 65.7183 134.557 63.2776 133.007 61.9306C131.197 63.2652 128.308 65.3637 125.814 67.105C123.689 68.5884 121.85 69.8127 121.21 70.0846C119.817 70.6756 118.078 64.3196 117.382 61.0677Z" fill="#FFCE85"/>
<path fill-rule="evenodd" clip-rule="evenodd" d="M-71.6195 52.7382L-83.1398 57.6283L-88.6008 66.4238L-76.0337 62.8475C-73.5049 64.4268 -68.182 67.4727 -67.1212 67.0224C-66.0603 66.5721 -55.9349 63.7265 -51.0048 62.36L-40.2204 66.1055C-37.5519 62.9659 -34.9256 59.6947 -33.1501 57.4143L-35.3636 40.2171L-51.7282 44.2948L-71.6195 52.7382ZM-5.07489 89.4512L-28.2689 84.5834L-38.6087 91.5634L-34.2487 101.835L-21.5988 109.975L-11.3714 129.23L0.02556 130.963L-6.85732 119.356L-4.52549 102.728L-5.07489 89.4512Z" fill="#188C18"/>
<path fill-rule="evenodd" clip-rule="evenodd" d="M22.6903 47.2216L17.6998 48.5997L17.0649 45.2603L19.828 40.4786L17.2222 39.1788L24.5268 32.1917L30.7702 25.47L22.43 27.252C23.2958 25.6816 25.4086 22.3788 26.9336 21.7315C28.4586 21.0842 38.8825 14.9322 43.9038 11.9371L78.4753 -7.08679C88.5832 -9.92762 109.014 -15.7008 109.876 -16.0666C110.738 -16.4325 109.111 -6.11804 108.189 -0.91507C105.383 0.769604 100.126 4.46928 101.548 5.79057C102.969 7.11186 104.385 14.3949 104.915 17.8713L101.451 31.3713L106.538 39.6684L105.683 45.0282L96.614 35.6453L97.5852 18.5768C84.893 19.7077 59.2232 21.9426 58.0821 21.8348C56.941 21.7269 48.563 26.1222 44.5166 28.3333L46.531 40.248L37.9213 39.0908L27.6553 39.562L22.6903 47.2216Z" fill="#188C18"/>
<path fill-rule="evenodd" clip-rule="evenodd" d="M117.382 61.0677C118.078 64.3196 119.817 70.6756 121.21 70.0846C121.85 69.8127 123.689 68.5884 125.814 67.1049L117.382 61.0677ZM140.641 64.7051C141.805 64.211 142.859 62.0472 143.71 59.5084L133.007 61.9306C134.557 63.2776 138.254 65.7183 140.641 64.7051Z" fill="#188C18"/>
<path d="M18.1265 68.9613L35.7767 70.9078L27.1311 67.8226L18.8845 59.5711L18.1265 68.9613Z" fill="#188C18"/>
<path d="M55.3949 92.4692L66.0401 90.3564L66.8801 74.3615L64.1843 68.0105L60.6381 73.4821L50.9268 84.3941C52.5272 87.3416 54.2205 90.3846 55.3949 92.4692Z" fill="#188C18"/>
</g>
</g>
<defs>
<clipPath id="clip0">
<rect width="100" height="100" fill="white"/>
</clipPath>
</defs>
</svg>
