<svg width="100" height="100" viewBox="0 0 100 100" fill="none" xmlns="http://www.w3.org/2000/svg">
<rect width="100" height="100" fill="white"/>
<path fill-rule="evenodd" clip-rule="evenodd" d="M100 100H0V98H31C40.6667 96.8333 60.1 94.6 60.5 95C60.9 95.4 87 93.8333 100 93V100Z" fill="#A94E37"/>
<path fill-rule="evenodd" clip-rule="evenodd" d="M100 78V93C87 93.8333 60.9 95.4 60.5 95C60.1 94.6 40.6667 96.8333 31 98H0V62L4 64L6.75 67L9.5 70L8 76L15 77.5L22.5 72.5L29 70L36 72.5L39.5 69L49 68L52 74.5C54.3333 75.8333 59.1 78.4 59.5 78C59.9 77.6 64.6667 75.8333 67 75L71.5 77.5L81 78C83.3333 78.6667 88.2 80.1 89 80.5C89.8 80.9 96.6667 79 100 78Z" fill="#472501"/>
<path fill-rule="evenodd" clip-rule="evenodd" d="M100 78C96.6667 79 89.8 80.9 89 80.5C88.2 80.1 83.3333 78.6667 81 78L71.5 77.5L67 75C64.6667 75.8333 59.9 77.6 59.5 78C59.1 78.4 54.3333 75.8333 52 74.5L49 68L39.5 69L36 72.5L29 70L22.5 72.5L15 77.5L8 76L9.5 70L6.75 67L14 65.5L33.5 66.8929L35 67L46.5 65.5L64 64L69 65.75L74 67.5L94.5 69H100V78Z" fill="#83354A"/>
<path d="M94.5 69H100V67L87.5 64.5L72.5 64L69 65.75L74 67.5L94.5 69Z" fill="#613154"/>
<path d="M46.5 65.5L64 64L69 65.75L72.5 64L87.5 64.5L100 67V57L97.5 56L97 48.5L93 42.5L87 52.5L82 59L77 50L69.5 46.5L61 49L56.5 57L46.5 65.5Z" fill="#F1663B"/>
<path d="M0 62L4 64L6.75 67L14 65.5L33.5 66.8929L26.5 64.5L16.5 61.5L8.5 55L6.75 53.25L4 50.5L3.5 42L0 38.5V62Z" fill="#F1663B"/>
<path d="M35 67L46.5 65.5L56.5 57L61 49L69.5 46.5L77 50L82 59L87 52.5L93 42.5L97 48.5L97.5 56L100 57V33L89.5 33.5L79 38.5L55 45.5L34.25 48.25L32 45L14 48.5L6.75 53.25L8.5 55L16.5 61.5L26.5 64.5L33.5 66.8929L35 67Z" fill="#FFB568"/>
<path d="M0 38.5L3.5 42L4 50.5L6.75 53.25L14 48.5L32 45L34.25 48.25L55 45.5L79 38.5L89.5 33.5L100 33V0H87L76 23L52 33L29 17L0 8V38.5Z" fill="#501939"/>
<path fill-rule="evenodd" clip-rule="evenodd" d="M76 23L87 0H0V8L29 17L52 33L76 23Z" fill="#3B1029"/>
</svg>
